<?xml version="1.0" standalone="no"?>
<!DOCTYPE svg PUBLIC "-//W3C//DTD SVG 20010904//EN"
 "http://www.w3.org/TR/2001/REC-SVG-20010904/DTD/svg10.dtd">
<svg version="1.0" xmlns="http://www.w3.org/2000/svg"
 width="100.000000pt" height="100.000000pt" viewBox="0 0 100.000000 100.000000"
 preserveAspectRatio="xMidYMid meet">

<g transform="translate(0.000000,100.000000) scale(0.100000,-0.100000)"
fill="#000000" stroke="none">
<path d="M854 769 c-10 -17 13 -36 27 -22 12 12 4 33 -11 33 -5 0 -12 -5 -16
-11z"/>
<path d="M413 749 c-30 -15 -48 -33 -62 -63 -30 -60 -28 -66 24 -66 31 0 45 4
45 13 0 26 45 57 82 57 28 0 42 -7 57 -26 12 -15 21 -33 21 -41 0 -8 -27 -43
-59 -77 -59 -60 -81 -98 -81 -137 0 -16 7 -19 54 -19 l53 0 7 39 c4 30 16 47
51 76 25 20 52 50 61 67 19 37 14 96 -11 134 -39 60 -163 82 -242 43z m160 -3
c51 -18 75 -42 86 -83 15 -52 -3 -92 -64 -149 -40 -37 -55 -58 -55 -78 0 -24
-3 -26 -40 -26 -36 0 -40 2 -40 25 0 18 20 47 65 95 49 52 65 76 65 98 0 42
-41 77 -90 77 -40 0 -90 -34 -90 -62 0 -8 -12 -13 -30 -13 -33 0 -37 13 -18
54 28 63 127 91 211 62z"/>
<path d="M513 733 c9 -2 25 -2 35 0 9 3 1 5 -18 5 -19 0 -27 -2 -17 -5z"/>
<path d="M580 723 c0 -5 9 -14 20 -21 11 -7 20 -8 20 -2 0 5 -9 14 -20 20 -11
6 -20 7 -20 3z"/>
<path d="M636 653 c9 -45 -11 -87 -56 -118 -37 -25 -70 -77 -70 -107 1 -7 8 3
16 22 8 19 39 58 69 86 46 42 55 56 55 85 0 19 -5 41 -10 49 -7 11 -8 6 -4
-17z"/>
<path d="M114 719 c-10 -17 13 -36 27 -22 12 12 4 33 -11 33 -5 0 -12 -5 -16
-11z"/>
<path d="M455 315 c-14 -13 -25 -31 -25 -40 0 -20 44 -65 63 -65 25 0 67 41
67 65 0 24 -42 65 -67 65 -8 0 -25 -11 -38 -25z m73 -7 c28 -28 7 -78 -33 -78
-27 0 -45 18 -45 45 0 27 18 45 45 45 12 0 26 -5 33 -12z"/>
<path d="M476 301 c-4 -5 3 -7 14 -4 28 8 39 -25 14 -45 -10 -8 -13 -12 -5
-10 25 7 36 35 22 52 -15 18 -37 21 -45 7z"/>
<path d="M234 139 c-10 -17 13 -36 27 -22 12 12 4 33 -11 33 -5 0 -12 -5 -16
-11z"/>
</g>
</svg>
